# Blender 5.0.0
# www.blender.org
mtllib Scene.004.mtl
o roof_flat_center.001
v 3.500000 1.449399 -3.491667
v 3.500000 1.555648 -3.491667
v 3.500000 1.449399 -2.491667
v 3.500000 1.555649 -2.491667
v 4.500000 1.449399 -2.491667
v 4.500000 1.555649 -2.491667
v 4.500000 1.449399 -3.491667
v 4.500000 1.555648 -3.491667
vn -1.0000 -0.0000 -0.0000
vn -0.0000 -0.0000 1.0000
vn -0.0000 -1.0000 -0.0000
vn 1.0000 -0.0000 -0.0000
vn -0.0000 -0.0000 -1.0000
vn -0.0000 1.0000 -0.0000
vt 0.968750 0.025000
vt 0.968750 0.225000
vt 0.843750 0.225000
s 1
usemtl colormap.002
f 1/1/1 3/1/1 2/2/1
f 4/2/1 2/2/1 3/1/1
f 5/1/2 6/2/2 3/1/2
f 4/2/2 3/1/2 6/2/2
f 5/1/3 3/1/3 7/1/3
f 1/1/3 7/1/3 3/1/3
f 8/2/4 6/2/4 7/1/4
f 5/1/4 7/1/4 6/2/4
f 1/1/5 2/2/5 7/1/5
f 8/2/5 7/1/5 2/2/5
f 6/3/6 8/3/6 4/3/6
f 2/3/6 4/3/6 8/3/6
